# xmcd CD database file
#
# Track frame offsets:
#	150
#	13868
#	24257
#	38356
#	51692
#	61220
#	69263
#	82063
#	99259
#	111920
#	122981
#	133694
#	151278
#	162222
#	177866
#	192305
#	208068
#	219651
#	231687
#	243166
#	253176
#	266786
#	279318
#	288723
#	300246
#	310979
#	325413
#	339185
#
# Disc length: 4670 seconds
#
# Revision: 0
# Processed by: cddbd v1.4PL0 Copyright (c) Steve Scherf et al.
# Submitted via: CDex 1.50beta9
#
DISCID=9d123c1c
DTITLE=Jim Croce - Greatest Hits
DYEAR=1900
DGENRE=Country
TTITLE0=You Don't Mess Around With Jim
TTITLE1=Which Way Are you Going?
TTITLE2=New York's Not My Home
TTITLE3=Stone Walls
TTITLE4=Photographs And Memories
TTITLE5=Cigarretes, Whisky, And Wild, Wild Women
TTITLE6=Walking Back To Georgia
TTITLE7=Operator (That's Not The Way It Feels)
TTITLE8=And (I Remember Her)
TTITLE9=Time In A Bottle
TTITLE10=A Long Time Ago
TTITLE11=Mississippi Lady
TTITLE12=Box #10
TTITLE13=Five Short Minutes
TTITLE14=These Dreams
TTITLE15=Roller Derby Queen
TTITLE16=It Doesn't Have To Be That Way
TTITLE17=Dreamin' Again
TTITLE18=Walkin' At The Carwash Blues
TTITLE19=Alabama Rain
TTITLE20=Bad, Bad, Leroy Brown
TTITLE21=One Less Sets Of Footsteps
TTITLE22=A Good Time Man Like Me Ain't Got No Business (Singing The Blues)
TTITLE23=I'll Have To Say I Love You In A Song
TTITLE24=Careful Man
TTITLE25=I Got A Name
TTITLE26=Lover's Cross
TTITLE27=Sallon And Saloon
EXTD=
EXTT0=
EXTT1=
EXTT2=
EXTT3=
EXTT4=
EXTT5=
EXTT6=
EXTT7=
EXTT8=
EXTT9=
EXTT10=
EXTT11=
EXTT12=
EXTT13=
EXTT14=
EXTT15=
EXTT16=
EXTT17=
EXTT18=
EXTT19=
EXTT20=
EXTT21=
EXTT22=
EXTT23=
EXTT24=
EXTT25=
EXTT26=
EXTT27=
PLAYORDER=
